Coordinates
version=1
nRows=19
nColumns=36
inDegrees=yes

Units are S.I. units (second, meters, Newtons, ...)
If the header above contains a line with 'inDegrees', this indicates whether rotational values are in degrees (yes) or radians (no).

endheader
time	pelvis_tilt	pelvis_list	pelvis_rotation	pelvis_tx	pelvis_ty	pelvis_tz	hip_flexion_r	hip_adduction_r	hip_rotation_r	knee_angle_r	knee_angle_r_beta	ankle_angle_r	subtalar_angle_r	mtp_angle_r	hip_flexion_l	hip_adduction_l	hip_rotation_l	knee_angle_l	knee_angle_l_beta	ankle_angle_l	subtalar_angle_l	mtp_angle_l	lumbar_extension	lumbar_bending	lumbar_rotation	arm_flex_r	arm_add_r	arm_rot_r	elbow_flex_r	pro_sup_r	arm_flex_l	arm_add_l	arm_rot_l	elbow_flex_l	pro_sup_l
      3.83333330	     -5.52504448	     -0.18494448	      1.16743991	      0.31586945	      0.93460494	     -0.06095614	      4.37674846	     -6.31424681	     -1.35282780	      1.45757945	      0.02543956	      3.24146702	     -3.23639404	     -7.49999987	      6.56226189	     -5.13980168	     -1.13588189	      0.59338698	      0.01035656	      1.75300942	      2.89327902	     -7.49999987	      5.25864762	     -3.48460906	     -7.84050317	    178.12391470	    -12.04594081	     65.40308626	     15.91169204	     52.73063157	     55.99871007	     -4.67141569	     71.76992101	      2.93136783	     32.42576898
      3.85000000	     -5.49949355	     -0.18766665	      1.18268445	      0.31620416	      0.93433682	     -0.06113967	      4.36058492	     -6.29966728	     -1.28873640	      1.48512006	      0.02592023	      3.22945117	     -3.30634616	     -7.49999987	      6.53372494	     -5.15036388	     -1.33680007	      0.59724101	      0.01042382	      1.79050327	      3.29420090	     -7.49999987	      5.29350799	     -3.51690595	     -7.92352317	    177.53819450	    -12.35943153	     60.94472591	     16.89210369	     55.08938634	     55.91165036	     -4.70997063	     66.93053329	      2.96418957	     39.10681050
      3.86666670	     -5.43747520	     -0.21396961	      1.17120560	      0.31585138	      0.93461003	     -0.06105567	      4.34019525	     -6.29201171	     -1.45524216	      1.61107390	      0.02811854	      3.24729576	     -3.16329458	     -7.49999987	      6.46359142	     -5.17501839	     -1.25068873	      0.58797854	      0.01026216	      1.68706159	      3.06052452	     -7.49999987	      5.16631173	     -3.36565741	     -7.64827107	    178.47348827	    -12.14158334	     65.78629022	     15.68100022	     49.53464332	     56.00844922	     -4.67295361	     77.88814050	      2.86607760	     22.85003873
      3.88333330	     -5.40635279	     -0.20475318	      1.15033573	      0.31615644	      0.93443180	     -0.06116939	      4.36988819	     -6.30447680	     -1.51498815	      1.73338750	      0.03025332	      3.21443363	     -3.21594237	     -7.49999987	      6.41707136	     -5.16221782	     -1.28144270	      0.57968634	      0.01011744	      1.66425105	      3.08015363	     -7.49999987	      5.18928035	     -3.34471918	     -7.61920370	    178.15620901	    -12.19383575	     64.53756713	     15.53323356	     50.12494541	     55.92034626	     -4.77172336	     77.74313438	      2.81698611	     22.72830398
      3.90000000	     -5.37194337	     -0.21677689	      1.19709719	      0.31592421	      0.93473248	     -0.06109487	      4.35844441	     -6.31807692	     -1.57604427	      1.86236474	      0.03250440	      3.18433721	     -3.28387933	     -7.49999987	      6.41122110	     -5.15162212	     -1.22582536	      0.59087910	      0.01031279	      1.57687384	      2.93115064	     -7.49999987	      5.16883664	     -3.31684758	     -7.69857903	    177.89457547	    -12.19340852	     62.91828806	     15.34231537	     52.82727729	     55.83204755	     -4.82251811	     73.50572825	      2.85371978	     26.20567066
      3.91666670	     -5.32470402	     -0.19559113	      1.26760807	      0.32015592	      0.93450335	     -0.06609855	      4.25636895	     -6.43415852	     -1.61248050	      1.94117656	      0.03387992	      3.15883306	     -3.30809519	     -7.49999987	      6.35398021	     -5.04943765	     -1.28664431	      0.58764709	      0.01025638	      1.56993060	      2.92498225	     -7.49999987	      5.23979063	     -3.20834266	     -7.72182261	    177.90431387	    -12.25368097	     62.90727080	     15.29955462	     52.81350407	     55.58114996	     -4.61933920	     73.52846359	      2.87841868	     26.20528476
      3.93333330	     -5.32092089	     -0.16510443	      1.27455120	      0.31986184	      0.93761102	     -0.06568226	      4.22987165	     -6.54876805	     -1.78091233	      2.04717652	      0.03572997	      3.12069446	     -3.38237016	     -7.49999987	      6.28390926	     -4.96165789	     -1.32615322	      0.57673252	      0.01006588	      1.61841536	      2.99513809	     -7.49999987	      5.33622509	     -3.07850774	     -7.52204557	    178.23114098	    -11.96625992	     65.80748533	     14.57925911	     47.73978777	     55.30892196	     -4.55553215	     77.91435156	      2.58355392	     21.90797207
      3.95000000	     -5.26240598	     -0.14698038	      1.23090012	      0.32004926	      0.93714176	     -0.06567306	      4.09021870	     -6.61283671	     -1.67043434	      1.95042738	      0.03404138	      3.06279600	     -3.43370319	     -7.49999987	      6.16202529	     -4.90037289	     -1.53570430	      0.59227393	      0.01033713	      1.84682368	      3.45355526	     -7.49999987	      5.36947800	     -3.04788097	     -7.54704703	    177.73525369	    -12.21921745	     60.42297387	     15.34907175	     52.18377031	     55.26511104	     -4.58909631	     73.05589910	      2.41594218	     31.53716125
      3.96666670	     -5.29348919	     -0.12961077	      1.25225779	      0.31967361	      0.93699092	     -0.06544115	      4.04522843	     -6.66775025	     -1.66808635	      1.84647477	      0.03222706	      3.14567419	     -3.21965441	     -7.49999987	      6.15157017	     -4.83171038	     -1.13960407	      0.60026377	      0.01047658	      1.73052233	      2.81065834	     -7.49999987	      5.38895885	     -2.88040975	     -7.58229560	    178.38740549	    -11.75740949	     65.62580874	     13.88615237	     46.55511262	     55.28050308	     -4.68842402	     77.93986614	      2.51772383	     21.25391006
      3.98333330	     -5.25514869	     -0.06649690	      1.20209244	      0.31987527	      0.93647612	     -0.06540644	      3.90803625	     -6.77576578	     -1.61346319	      1.71694227	      0.02996630	      3.17133559	     -3.18094407	     -7.49999987	      6.05621950	     -4.74232177	     -1.04891479	      0.60224678	      0.01051119	      1.80031776	      2.67948628	     -7.49999987	      5.39981829	     -2.89205209	     -7.50239360	    178.37954813	    -11.59445997	     66.01040846	     13.51577776	     45.43284973	     55.45631216	     -4.68173862	     78.21874574	      2.46969788	     20.88707287
      4.00000000	     -5.27714434	     -0.02616773	      1.31310143	      0.31958107	      0.93648098	     -0.06519820	      3.82053747	     -6.83366334	     -1.67081989	      1.51114412	      0.02637444	      3.12257683	     -3.07580339	     -7.49999987	      6.05852186	     -4.68757637	     -0.78935108	      0.61318800	      0.01070215	      1.80508005	      2.49593243	     -7.49999987	      5.43648646	     -2.92234134	     -7.68175417	    178.24294138	    -11.49014060	     64.53610339	     13.42184319	     47.88439885	     55.64504825	     -4.64131183	     75.07380623	      2.59469720	     23.25197391
      4.01666670	     -5.30982451	     -0.00741079	      1.27870718	      0.31975637	      0.93595256	     -0.06524498	      3.81816707	     -6.88107425	     -1.64172354	      1.40332117	      0.02449257	      3.16075349	     -3.02121563	     -7.49999987	      6.05600580	     -4.66581841	     -0.77429652	      0.59847190	      0.01044531	      1.98653100	      2.49676567	     -7.49999987	      5.50511572	     -2.86055676	     -7.39142322	    178.62696923	    -11.13382069	     67.13171287	     12.62243839	     47.48150619	     55.82773058	     -4.64130012	     77.23040120	      2.61485588	     22.13584628
      4.03333330	     -5.31548707	      0.01197267	      1.23947255	      0.31939066	      0.93604453	     -0.06499187	      3.78639870	     -6.90682846	     -1.61088472	      1.32016677	      0.02304126	      3.11503444	     -3.08469170	     -7.49999987	      6.04184899	     -4.64856917	     -0.65195816	      0.58958316	      0.01029017	      2.09931730	      2.46006892	     -7.49999987	      5.51063633	     -2.84608091	     -7.32828095	    178.59709641	    -10.96385228	     67.34713096	     12.56243886	     44.07265641	     55.98562161	     -4.69797536	     80.36385797	      2.50647165	     19.90700596
      4.05000000	     -5.29576232	      0.00911124	      1.22551141	      0.31958876	      0.93565095	     -0.06503826	      3.73270223	     -6.90204354	     -1.66175840	      1.26332961	      0.02204926	      3.07088199	     -3.14575501	     -7.49999987	      6.01341198	     -4.63600841	     -0.46498514	      0.59558308	      0.01039489	      2.19279806	      2.27664894	     -7.49999987	      5.56493590	     -2.78404106	     -7.03300940	    178.70796430	    -10.77307392	     67.90824838	     12.53909673	     43.58534271	     56.05254799	     -4.50529724	     80.33955859	      2.49937084	     20.01845706
      4.06666670	     -5.30872733	      0.02585940	      1.24864826	      0.31930940	      0.93281226	     -0.06463059	      3.71876461	     -6.91006048	     -1.70960720	      1.25524664	      0.02190819	      3.09376410	     -3.22502816	     -7.49999987	      6.02640222	     -4.61736029	     -0.25969889	      0.60989882	      0.01064474	      2.22871176	      2.11611434	     -7.49999987	      5.63149829	     -2.82642945	     -6.72556563	    178.80989947	    -10.65758157	     68.63202310	     12.22133726	     43.69540527	     56.41168294	     -4.09506247	     80.03892668	      2.38296196	     19.74524737
      4.08333330	     -5.30521891	      0.04148277	      1.24401870	      0.31961842	      0.93566692	     -0.06489940	      3.69467655	     -6.90812407	     -1.70407247	      1.25700619	      0.02193890	      3.00750547	     -3.42022743	     -7.49999987	      6.00947668	     -4.61933933	     -0.20393988	      0.62085065	      0.01083589	      2.21623283	      2.02935416	     -7.49999987	      5.69134272	     -2.89790697	     -6.77412276	    178.12427994	    -10.89624866	     61.56564140	     13.33296654	     51.60042106	     56.33540602	     -4.01733165	     73.20000811	      2.18196935	     32.40444605
      4.10000000	     -5.30951989	      0.02906346	      1.27646156	      0.31928935	      0.93293251	     -0.06459230	      3.68744451	     -6.88487495	     -1.86638179	      1.27675978	      0.02228366	      3.05815191	     -3.38851109	     -7.49999987	      6.01065066	     -4.63680041	     -0.00432258	      0.62267534	      0.01086773	      2.28418539	      1.86871602	     -7.49999987	      5.68103281	     -2.84899084	     -6.34434761	    179.14112009	    -10.46907745	     71.54355336	     11.44048795	     42.15694875	     56.68825233	     -3.67525677	     79.35125969	      2.28058600	     19.77613077
      4.11666670	     -5.30122178	      0.03567401	      1.32742949	      0.31967776	      0.93587636	     -0.06492482	      3.64063357	     -6.89670927	     -1.84055993	      1.28972796	      0.02251000	      3.01874547	     -3.49624115	     -7.49999987	      6.00793844	     -4.64272908	      0.12210540	      0.62518301	      0.01091150	      2.22554123	      1.84449461	     -7.49999987	      5.75346202	     -2.83822259	     -6.20074547	    179.13588083	    -10.38418595	     71.59578385	     11.36223144	     43.11018218	     56.63245500	     -3.44206038	     79.35262537	      2.36647193	     19.46909319
      4.13333330	     -5.30382869	      0.03523990	      1.37938376	      0.31934187	      0.93609591	     -0.06478789	      3.63547302	     -6.92029936	     -1.79647113	      1.29892000	      0.02267043	      3.00513147	     -3.58869554	     -7.49999987	      6.00888997	     -4.64032422	      0.27858819	      0.62011702	      0.01082308	      2.26652008	      1.80774314	     -7.49999987	      5.74601822	     -2.80924637	     -6.20662584	    179.20177236	    -10.26962917	     72.38696194	     11.13775255	     41.67715773	     56.62224721	     -3.22350635	     79.31695776	      2.31156248	     19.44637881
